<svg width="56" height="56" viewBox="0 0 56 56" fill="none" xmlns="http://www.w3.org/2000/svg">
<path fill-rule="evenodd" clip-rule="evenodd" d="M46 35C46 44.9411 37.9411 53 28 53C18.0589 53 10 44.9411 10 35C10 26.0536 16.9303 16.7751 22.9598 8.70251C24.2594 6.96263 25.5171 5.27878 26.6545 3.66635C27.5091 2.45495 29.3649 2.47908 30.1872 3.71257C31.2908 5.36795 32.5111 7.09415 33.7701 8.875C39.4868 16.9616 46 26.175 46 35ZM26.8274 44.9228C27.9842 45.0679 29 45.9617 29 47.1276C29 48.1625 28.196 49.0372 27.1632 48.9708C20.6322 48.5512 15.1028 43.4686 14.1462 36.9937C13.9848 35.901 14.8954 35 16 35C17.1046 35 17.979 35.9053 18.2047 36.9866C19.0751 41.1585 22.6186 44.395 26.8274 44.9228Z" fill="#3C39EC" fill-opacity="0.13"/>
</svg>