<svg width="56" height="56" viewBox="0 0 56 56" fill="none" xmlns="http://www.w3.org/2000/svg">
<path d="M26.472 2.30008C20.6534 3.84013 16.7988 9.45601 18.3577 15.2011C18.8889 17.1594 19.9351 18.8457 21.3117 20.1585C21.5882 20.481 21.8756 20.8106 22.1696 21.1436C23.7402 19.8068 25.7759 19 28 19C29.8544 19 31.5778 19.5608 33.0099 20.5222C33.7513 20.917 34.4478 21.4236 35.0739 22.0421C35.3819 22.3461 35.6609 22.6673 35.9146 23.003C38.2544 22.3477 40.2206 22.3088 40.2206 22.3088C46.4996 22.1827 52.861 21.5138 50.5449 14.9282C47.118 5.17782 32.2907 0.759518 26.472 2.30008Z" fill="#3C39EC" fill-opacity="0.13"/>
<path d="M29.9225 36.7942C33.9693 35.9137 37 32.3107 37 28C37 27.4625 36.9529 26.936 36.8626 26.4245C37.7055 26.2495 39.0858 25.9668 39.6847 25.8549C41.5105 25.3197 43.4947 25.2573 45.4571 25.7767C51.2146 27.2998 54.1533 33.4442 52.5784 39.2507C51.0039 45.0575 39.7619 55.6825 29.6 53.7736C22.7357 52.4856 25.3369 46.6448 28.3671 41.1468C28.3671 41.1468 29.3137 39.0405 29.9225 36.7942Z" fill="#3C39EC" fill-opacity="0.13"/>
<path d="M19.9263 24.0187C19.3332 25.219 19 26.5706 19 28C19 32.5857 22.4296 36.3704 26.8638 36.929C26.7838 37.1981 26.7044 37.4909 26.6249 37.7837C26.4844 38.3018 26.3438 38.82 26.1998 39.2078C25.7349 41.0119 24.7728 42.721 23.3103 44.1315C19.0218 48.2711 12.1242 47.7907 7.83628 43.6516C3.54834 39.5126 -0.0144532 24.8649 6.86836 17.1845C11.517 11.9968 15.3088 17.0191 18.5802 22.2415C18.5802 22.2415 19.0604 23.0076 19.9263 24.0187Z" fill="#3C39EC" fill-opacity="0.13"/>
<path d="M28 33C30.7614 33 33 30.7614 33 28C33 25.2386 30.7614 23 28 23C25.2386 23 23 25.2386 23 28C23 30.7614 25.2386 33 28 33Z" fill="#3C39EC" fill-opacity="0.13"/>
</svg>