<svg width="56" height="56" viewBox="0 0 56 56" fill="none" xmlns="http://www.w3.org/2000/svg">
  <path d="M30 38.424V27C30 25.896 29.104 25 28 25C26.895 25 26 25.896 26 27V38.424C24.237 39.197 23 40.955 23 43C23 45.757 25.243 48 28 48C30.757 48 33 45.757 33 43C33 40.955 31.763 39.197 30 38.424ZM28 44C27.448 44 27 43.552 27 43C27 42.448 27.448 42 28 42C28.552 42 29 42.448 29 43C29 43.552 28.552 44 28 44Z" fill="#3C39EC" fill-opacity="0.13"/>
  <path d="M36.009 35.459L36 10C36 5.589 32.411 2 28 2C23.589 2 20 5.589 20 9.999L19.99 35.459C18.08 37.492 17 40.192 17 43C17 49.065 21.935 54 28 54C34.065 54 39 49.065 39 43C39 40.191 37.92 37.491 36.009 35.459ZM28 50C24.141 50 21 46.859 21 43C21 41.016 21.848 39.115 23.327 37.787C23.749 37.407 23.99 36.867 23.99 36.3L24 10C24 7.794 25.794 6 28 6C30.206 6 32 7.794 32 10.001L32.009 36.3C32.009 36.867 32.25 37.408 32.673 37.787C34.151 39.115 35 41.015 35 43C35 46.859 31.859 50 28 50Z" fill="#3C39EC" fill-opacity="0.13"/>
</svg>